<svg width="57" height="57" viewBox="0 0 57 57" fill="none" xmlns="http://www.w3.org/2000/svg">
<path d="M39.2468 19.7696C39.0073 19.7696 38.7673 19.8495 38.6076 20.0092L28.6209 30.0757L18.6341 20.089C18.4744 19.9293 18.2345 19.8494 17.9949 19.8494C17.7554 19.8494 17.5155 19.9293 17.3558 20.089C17.1961 20.2487 17.1162 20.4886 17.1162 20.7282C17.1162 20.9677 17.1961 21.2077 17.3558 21.3674L27.9821 31.9938C28.1418 32.1535 28.3818 32.2333 28.6213 32.2333C28.8609 32.2333 29.1008 32.1535 29.2605 31.9938L39.8869 21.3674C40.0466 21.2077 40.1265 20.9677 40.1265 20.7282C40.1265 20.4886 40.0466 20.2487 39.8869 20.089C39.7268 19.8494 39.4873 19.7696 39.2477 19.7696L39.2468 19.7696Z" fill="#11B0D7"/>
<path d="M50.9909 44.8559C49.9525 44.8559 48.9135 45.1753 48.0349 45.6548L44.3599 41.9798C47.4756 38.3048 49.3932 33.5908 49.3932 28.3981C49.3932 23.4447 47.6357 18.8111 44.6792 15.2962L48.514 11.4615C49.233 11.7808 50.1118 12.0208 50.9904 12.0208C54.2663 12.0208 56.9823 9.38418 56.9823 6.02893C56.9823 2.75309 54.3457 0.0370666 50.9904 0.0370666C47.7146 0.0370666 44.9986 2.67368 44.9986 6.02893C44.9986 7.30728 45.3982 8.42559 46.037 9.38459L42.4418 12.9798C38.7672 9.62372 33.9734 7.62633 28.6208 7.62633C23.4278 7.62633 18.714 9.5439 15.1183 12.6596L11.4432 8.98459C11.9227 8.10586 12.2421 7.14683 12.2421 6.02862C12.2421 2.75278 9.60551 0.0367584 6.25027 0.0367584C2.89461 0.0367584 0.258403 2.67296 0.258403 6.02862C0.258403 9.30446 2.89502 12.0205 6.25027 12.0205C7.28866 12.0205 8.32757 11.7011 9.20624 11.2216L12.8813 14.8966C9.76555 18.4918 7.84797 23.2057 7.84797 28.3992C7.84797 33.7518 9.84536 38.5455 13.1208 42.2201L9.5256 45.8153C8.64686 45.1761 7.4487 44.8567 6.25016 44.8567C2.97432 44.8567 0.258301 47.4934 0.258301 50.8486C0.258301 54.1245 2.89492 56.8405 6.25016 56.8405C9.52601 56.8405 12.242 54.2039 12.242 50.8486C12.242 49.9699 12.0823 49.0912 11.6827 48.3721L15.5174 44.5374C19.0332 47.4131 23.6668 49.171 28.6204 49.171C33.8134 49.171 38.5272 47.2534 42.1229 44.1377L45.798 47.8127C45.3185 48.6915 44.9991 49.6505 44.9991 50.7687C44.9991 54.0445 47.6357 56.7606 50.9909 56.7606C54.2668 56.7606 56.9828 54.1239 56.9828 50.7687C56.9828 47.4933 54.3466 44.8566 50.9909 44.8566L50.9909 44.8559ZM40.7646 36.7867C40.7646 37.5058 40.2052 38.0651 39.4862 38.0651L17.7558 38.0647C17.0368 38.0647 16.4774 37.5053 16.4774 36.7863V20.0091C16.4774 19.29 17.0368 18.7307 17.7558 18.7307H39.5663C40.2854 18.7307 40.8447 19.2901 40.8447 20.0091V36.7873L40.7646 36.7867Z" fill="#11B0D7"/>
</svg>
