<svg width="17" height="12" viewBox="0 0 17 12" fill="none" xmlns="http://www.w3.org/2000/svg">
<path d="M14.1828 4.55799C13.9806 4.55741 13.7792 4.53291 13.5828 4.48499L11.7598 6.34299C11.7524 6.34991 11.7465 6.35828 11.7425 6.36756C11.7385 6.37685 11.7364 6.38687 11.7364 6.39699C11.7364 6.40711 11.7385 6.41713 11.7425 6.42642C11.7465 6.43571 11.7524 6.44407 11.7598 6.45099L14.6538 9.53499C14.7004 9.58144 14.7373 9.63661 14.7625 9.69736C14.7877 9.7581 14.8007 9.82322 14.8007 9.88899C14.8007 9.95476 14.7877 10.0199 14.7625 10.0806C14.7373 10.1414 14.7004 10.1965 14.6538 10.243C14.6074 10.2896 14.5522 10.3265 14.4915 10.3517C14.4307 10.3769 14.3656 10.3899 14.2998 10.3899C14.2341 10.3899 14.1689 10.3769 14.1082 10.3517C14.0474 10.3265 13.9923 10.2896 13.9458 10.243L11.0638 7.16899C11.0565 7.16161 11.0478 7.15576 11.0381 7.15176C11.0285 7.14777 11.0182 7.14571 11.0078 7.14571C10.9974 7.14571 10.9871 7.14777 10.9775 7.15176C10.9679 7.15576 10.9592 7.16161 10.9518 7.16899L10.2518 7.88399C9.96398 8.17792 9.6205 8.41162 9.24142 8.57146C8.86233 8.7313 8.45523 8.81408 8.04383 8.81499C7.62327 8.81339 7.20726 8.72782 6.82021 8.56332C6.43315 8.39881 6.08284 8.15867 5.78982 7.85699L5.11282 7.16899C5.10548 7.16161 5.09676 7.15576 5.08715 7.15176C5.07754 7.14777 5.06723 7.14571 5.05682 7.14571C5.04642 7.14571 5.03611 7.14777 5.0265 7.15176C5.01689 7.15576 5.00817 7.16161 5.00082 7.16899L2.11382 10.242C2.06738 10.2886 2.0122 10.3255 1.95146 10.3507C1.89071 10.3759 1.82559 10.3889 1.75982 10.3889C1.69406 10.3889 1.62894 10.3759 1.56819 10.3507C1.50745 10.3255 1.45227 10.2886 1.40582 10.242C1.35926 10.1955 1.32232 10.1404 1.29711 10.0796C1.27191 10.0189 1.25893 9.95376 1.25893 9.88799C1.25893 9.82222 1.27191 9.7571 1.29711 9.69636C1.32232 9.63561 1.35926 9.58044 1.40582 9.53399L4.30582 6.44899C4.31891 6.43404 4.32612 6.41485 4.32612 6.39499C4.32612 6.37513 4.31891 6.35594 4.30582 6.34099L0.159825 2.12699C0.149255 2.1159 0.13558 2.10826 0.120594 2.10508C0.105607 2.1019 0.090009 2.10332 0.0758447 2.10916C0.0616804 2.115 0.0496112 2.12498 0.0412204 2.1378C0.0328296 2.15062 0.0285089 2.16567 0.0288248 2.18099V10.616C0.0296169 10.9422 0.159566 11.2549 0.390251 11.4856C0.620937 11.7163 0.933587 11.8462 1.25982 11.847H14.7978C15.1241 11.8462 15.4367 11.7163 15.6674 11.4856C15.8981 11.2549 16.028 10.9422 16.0288 10.616V3.76899C15.7904 4.01847 15.504 4.21702 15.1867 4.35264C14.8694 4.48825 14.5279 4.55811 14.1828 4.55799Z" fill="white"/>
<path d="M11.6257 1.99898C11.6254 1.56868 11.7337 1.14526 11.9407 0.767985H1.25565C0.978192 0.76686 0.708915 0.86192 0.493652 1.03698L6.52865 7.17898C6.72487 7.37878 6.95893 7.53748 7.21716 7.64581C7.47539 7.75415 7.75262 7.80994 8.03265 7.80994C8.31269 7.80994 8.58992 7.75415 8.84815 7.64581C9.10638 7.53748 9.34044 7.37878 9.53665 7.17898L12.6367 4.02898C12.3227 3.7918 12.068 3.48505 11.8925 3.13282C11.7171 2.78059 11.6258 2.39248 11.6257 1.99898Z" fill="white"/>
</svg>
