<svg width="17" height="16" viewBox="0 0 17 16" fill="none" xmlns="http://www.w3.org/2000/svg">
<path d="M3.6107 16H0.289698V5.31701H3.6067L3.6107 16ZM1.9507 3.86001C1.56899 3.86179 1.19532 3.75033 0.876951 3.53974C0.558581 3.32915 0.309809 3.02888 0.162092 2.67691C0.0143741 2.32493 -0.0256536 1.93706 0.0470699 1.56233C0.119793 1.18761 0.302002 0.842864 0.570654 0.571694C0.839307 0.300524 1.18234 0.115108 1.55637 0.0388932C1.9304 -0.037322 2.31863 -0.000913307 2.67196 0.143515C3.0253 0.287944 3.32788 0.533905 3.54143 0.850296C3.75498 1.16669 3.86991 1.5393 3.8717 1.92101C3.87224 2.43232 3.6706 2.92311 3.31074 3.28634C2.95088 3.64957 2.46199 3.85579 1.9507 3.86001ZM16.0257 16H12.7157V10.8C12.7157 9.56101 12.6907 7.97101 10.9907 7.97101C9.2657 7.97101 9.0017 9.31701 9.0017 10.71V16H5.6897V5.31701H8.8697V6.77501H8.9157C9.2339 6.23039 9.69392 5.78232 10.2467 5.47853C10.7995 5.17475 11.4244 5.02665 12.0547 5.05001C15.4117 5.05001 16.0287 7.26101 16.0287 10.132V16H16.0257Z" fill="white"/>
</svg>
