<svg width="23" height="33" viewBox="0 0 23 33" fill="none" xmlns="http://www.w3.org/2000/svg">
<path d="M11.2788 0.750142C8.32762 0.729283 5.48807 1.87701 3.38024 3.94268C1.27242 6.00835 0.0675672 8.82414 0.0288086 11.7751C0.0288086 20.0441 11.2788 32.2501 11.2788 32.2501C11.2788 32.2501 22.5288 20.0441 22.5288 11.7751C22.49 8.82414 21.2852 6.00835 19.1774 3.94268C17.0695 1.87701 14.23 0.729283 11.2788 0.750142ZM11.2788 15.7131C10.5035 15.6974 9.75019 15.4531 9.1132 15.0109C8.47621 14.5688 7.98394 13.9484 7.69811 13.2275C7.41228 12.5067 7.34562 11.7176 7.50648 10.959C7.66734 10.2005 8.04857 9.50628 8.60236 8.96351C9.15615 8.42075 9.85786 8.05355 10.6195 7.90798C11.3811 7.7624 12.1688 7.84492 12.8837 8.14518C13.5986 8.44545 14.209 8.9501 14.6383 9.59585C15.0676 10.2416 15.2966 10.9997 15.2968 11.7751C15.2966 12.299 15.192 12.8176 14.989 13.3005C14.786 13.7835 14.4888 14.2211 14.1147 14.5878C13.7405 14.9545 13.297 15.2429 12.8101 15.4361C12.3232 15.6293 11.8026 15.7235 11.2788 15.7131Z" fill="white"/>
</svg>
