<svg width="58" height="57" viewBox="0 0 58 57" fill="none" xmlns="http://www.w3.org/2000/svg">
<path d="M6.59778 56.8405C5.81092 56.8405 5.03177 56.6855 4.30481 56.3844C3.57785 56.0833 2.91732 55.6419 2.36092 55.0855C1.80453 54.5292 1.36318 53.8686 1.06206 53.1417C0.760943 52.4147 0.60596 51.6355 0.60596 50.8487C0.60596 50.0618 0.760943 49.2827 1.06206 48.5557C1.36318 47.8288 1.80453 47.1682 2.36092 46.6118C2.91732 46.0554 3.57785 45.6141 4.30481 45.313C5.03177 45.0118 5.81092 44.8569 6.59778 44.8569C7.19194 44.8547 7.7835 44.9354 8.35541 45.0965C8.89956 45.2454 9.4133 45.4888 9.87319 45.8155L13.4684 42.2204C12.6484 41.3008 11.9104 40.3114 11.2627 39.2634C8.95182 35.5223 7.89629 31.1408 8.24996 26.7578C8.60364 22.3748 10.348 18.2193 13.2288 14.8971L9.55383 11.2214C9.10438 11.4675 8.62849 11.6619 8.13528 11.8008C7.63503 11.9436 7.11761 12.0175 6.59737 12.0204C5.8103 12.0212 5.03081 11.8668 4.3035 11.5659C3.5762 11.2651 2.91537 10.8238 2.35885 10.2672C1.80233 9.71066 1.36104 9.0498 1.06026 8.32248C0.759475 7.59515 0.605096 6.81564 0.605961 6.02858C0.605961 4.43945 1.23724 2.91541 2.36092 1.79172C3.48461 0.668038 5.00865 0.0367584 6.59778 0.0367584C8.18691 0.0367584 9.71095 0.668038 10.8346 1.79172C11.9583 2.91541 12.5896 4.43945 12.5896 6.02858C12.5906 6.55892 12.5167 7.08674 12.37 7.59638C12.2293 8.07925 12.035 8.54486 11.7908 8.98453L15.4658 12.6595C17.2857 11.0815 19.3679 9.8343 21.618 8.97457C25.1699 7.60498 29.0335 7.25422 32.774 7.96177C36.5144 8.66932 39.983 10.4071 42.7892 12.9794L46.3843 9.38421C45.637 8.27716 45.2815 6.95194 45.3745 5.6195C45.4674 4.28707 46.0034 3.02402 46.8971 2.03143C47.7909 1.03883 48.991 0.373754 50.3064 0.142068C51.6218 -0.0896173 52.977 0.125408 54.1561 0.752913C55.3352 1.38042 56.2704 2.38433 56.813 3.60484C57.3556 4.82534 57.4743 6.19227 57.1502 7.48803C56.8261 8.78378 56.0778 9.93387 55.0245 10.7552C53.9712 11.5765 52.6734 12.0219 51.3378 12.0204C50.9003 12.0178 50.4647 11.9642 50.0397 11.8606C49.6355 11.7638 49.241 11.6301 48.8613 11.4611L45.0266 15.2958C45.7695 16.1804 46.4333 17.1285 47.0104 18.1292C47.5951 19.1438 48.0909 20.2071 48.4922 21.3072C48.9005 22.4275 49.2108 23.5811 49.4197 24.755C50.0762 28.448 49.7212 32.2498 48.3925 35.7575C47.9598 36.8943 47.4296 37.9916 46.8081 39.0372C46.1907 40.0746 45.488 41.0588 44.7072 41.9795L48.3822 45.6544C48.8315 45.4084 49.3072 45.2141 49.8003 45.0751C50.3005 44.9323 50.8179 44.8584 51.3381 44.8555V44.8563C52.1451 44.8536 52.9446 45.011 53.6903 45.3194C54.4008 45.6131 55.047 46.0427 55.5928 46.584C56.1456 47.1312 56.584 47.783 56.8823 48.5014C57.1806 49.2198 57.333 49.9904 57.3304 50.7683C57.3304 52.3574 56.6991 53.8814 55.5754 55.0051C54.4518 56.1288 52.9277 56.7601 51.3386 56.7601C49.7495 56.7601 48.2254 56.1288 47.1017 55.0051C45.9781 53.8814 45.3468 52.3574 45.3468 50.7683C45.3458 50.2379 45.4197 49.7101 45.5664 49.2005C45.7071 48.7176 45.9014 48.2519 46.1456 47.8122L42.4702 44.1374C40.6504 45.7155 38.5682 46.9627 36.3181 47.8225C33.9711 48.7176 31.4798 49.1746 28.9679 49.1708C25.3697 49.1722 21.8322 48.2434 18.6989 46.4744C17.701 45.9103 16.7529 45.2622 15.865 44.5372L12.0303 48.3719C12.2308 48.7413 12.3756 49.1384 12.4599 49.5502C12.5486 49.9771 12.5921 50.4122 12.5897 50.8483C12.5906 51.6354 12.4363 52.415 12.1355 53.1424C11.8347 53.8698 11.3934 54.5308 10.8368 55.0874C10.2802 55.644 9.61929 56.0853 8.8919 56.3862C8.16451 56.687 7.38492 56.8414 6.59778 56.8405ZM22.8219 15.2843C22.4818 15.2843 22.0752 15.3789 21.579 15.5734C20.9269 15.8429 20.2974 16.1639 19.6963 16.5335C18.741 17.119 17.6638 17.9436 17.8135 19.1407C18.9934 26.2828 24.9365 36.5768 30.5316 41.1699C30.6907 41.2912 30.8695 41.3843 31.0601 41.4452C31.2452 41.5025 31.4381 41.5311 31.632 41.5299C32.2018 41.5299 32.8686 41.3117 33.7307 40.8432C34.6792 40.3114 35.3648 39.8448 35.8266 39.4163C36.2493 39.0243 36.4848 38.6627 36.5464 38.3109C36.6579 37.6747 36.1911 37.1352 35.6507 36.5103C35.5392 36.3814 35.4242 36.2484 35.3105 36.1103C34.882 35.5896 34.5352 35.1526 34.2565 34.8015L34.256 34.8008C33.2771 33.5674 33.014 33.236 32.3886 33.236C32.0888 33.2497 31.7905 33.2854 31.4959 33.3428C31.0999 33.4067 30.6072 33.486 29.9448 33.5533C29.9203 33.5558 29.8957 33.557 29.8711 33.557C29.3294 33.557 28.6112 32.9751 27.7364 31.827C27.0959 30.9589 26.5078 30.0534 25.9752 29.1152C25.4165 28.165 24.9173 27.1811 24.4803 26.1692C23.9205 24.8114 23.798 23.8991 24.1162 23.4581C24.5059 22.9178 24.821 22.5308 25.0742 22.2199C25.9831 21.1038 25.9831 21.1038 25.1918 19.1007V19.0997C25.0275 18.6828 24.822 18.1639 24.5858 17.5325C24.5229 17.3648 24.4651 17.1984 24.4092 17.0374C24.2448 16.5649 24.0908 16.1192 23.8577 15.8009C23.7434 15.6336 23.5882 15.4983 23.4069 15.4079C23.2256 15.3175 23.0242 15.275 22.8219 15.2843ZM29.9411 16.516C29.8338 16.5156 29.7275 16.5363 29.6282 16.577C29.5289 16.6177 29.4386 16.6776 29.3624 16.7532C29.2863 16.8288 29.2257 16.9186 29.1843 17.0176C29.1429 17.1166 29.1213 17.2228 29.1209 17.3301C29.1205 17.4374 29.1413 17.5437 29.1819 17.643C29.2226 17.7423 29.2825 17.8326 29.3581 17.9088C29.4337 17.9849 29.5235 18.0455 29.6225 18.0869C29.7215 18.1283 29.8277 18.1499 29.935 18.1503C31.453 18.1634 32.9414 18.5726 34.2528 19.3373C35.5642 20.1021 36.6533 21.1959 37.4124 22.5106C38.1715 23.8253 38.5742 25.3154 38.5808 26.8335C38.5874 28.3516 38.1976 29.8452 37.45 31.1664C37.3959 31.2599 37.3608 31.3631 37.3468 31.4702C37.3328 31.5773 37.3402 31.686 37.3684 31.7903C37.3967 31.8945 37.4453 31.9921 37.5115 32.0774C37.5776 32.1627 37.6601 32.2341 37.754 32.2874C37.8479 32.3407 37.9514 32.3749 38.0586 32.388C38.1658 32.4011 38.2745 32.3928 38.3785 32.3636C38.4824 32.3345 38.5796 32.285 38.6644 32.2181C38.7491 32.1512 38.8198 32.0682 38.8723 31.9738C39.7632 30.4052 40.2286 28.6309 40.2223 26.8269C40.216 25.0229 39.7381 23.252 38.8362 21.6897C37.9342 20.1273 36.6394 18.828 35.0803 17.9204C33.5212 17.0129 31.752 16.5288 29.948 16.516H29.9411ZM29.9166 19.9133C29.7012 19.914 29.4947 19.9995 29.342 20.1513C29.1892 20.3031 29.1023 20.509 29.1003 20.7244C29.0994 20.8317 29.1196 20.9381 29.1599 21.0376C29.2001 21.1371 29.2596 21.2276 29.3348 21.3041C29.4101 21.3806 29.4997 21.4415 29.5985 21.4833C29.6973 21.5251 29.8033 21.5471 29.9106 21.5479C30.837 21.5556 31.7453 21.8051 32.5456 22.2716C33.346 22.7381 34.0106 23.4055 34.4738 24.2078C34.937 25.0101 35.1826 25.9194 35.1865 26.8458C35.1903 27.7722 34.9521 28.6835 34.4956 29.4896C34.4418 29.583 34.4069 29.6862 34.3931 29.7932C34.3793 29.9002 34.3868 30.0089 34.4152 30.113C34.4435 30.217 34.4922 30.3145 34.5584 30.3997C34.6245 30.4849 34.7069 30.5561 34.8007 30.6094C34.8946 30.6626 34.998 30.6967 35.1051 30.7098C35.2122 30.7229 35.3208 30.7147 35.4247 30.6856C35.5286 30.6566 35.6257 30.6072 35.7104 30.5405C35.7952 30.4738 35.8659 30.3909 35.9185 30.2967C36.5168 29.243 36.8294 28.0511 36.825 26.8393C36.8207 25.6275 36.4997 24.4379 35.8938 23.3885C35.2879 22.3391 34.4182 21.4662 33.3709 20.8566C32.3237 20.2469 31.1352 19.9216 29.9235 19.9129L29.9166 19.9133ZM30.1183 23.322C29.9082 23.3225 29.7064 23.4039 29.5547 23.5493C29.4031 23.6947 29.3132 23.893 29.3039 24.1029C29.2946 24.3128 29.3665 24.5182 29.5047 24.6765C29.6428 24.8348 29.8367 24.9337 30.0459 24.9529C30.3656 24.9818 30.673 25.0906 30.9398 25.2691C31.2066 25.4476 31.4244 25.6902 31.5732 25.9747C31.7219 26.2592 31.7969 26.5765 31.7913 26.8975C31.7856 27.2185 31.6995 27.5329 31.5409 27.812C31.4705 27.9365 31.4339 28.0771 31.4347 28.2201C31.4356 28.363 31.4738 28.5033 31.5457 28.6268C31.6176 28.7504 31.7206 28.853 31.8444 28.9244C31.9683 28.9958 32.1087 29.0335 32.2516 29.0338C32.3963 29.0337 32.5385 28.9952 32.6635 28.9224C32.7886 28.8496 32.8922 28.7449 32.9638 28.6191C33.2572 28.1021 33.4164 27.5197 33.4265 26.9253C33.4367 26.3308 33.2975 25.7434 33.0219 25.2166C32.7462 24.6899 32.3428 24.2407 31.8486 23.9102C31.3544 23.5798 30.7852 23.3785 30.1931 23.325C30.1686 23.3232 30.1431 23.322 30.1184 23.322H30.1183Z" fill="#11B0D7"/>
</svg>
