<svg width="20" height="16" viewBox="0 0 20 16" fill="none" xmlns="http://www.w3.org/2000/svg">
<path d="M9.42881 4.256L9.47081 4.948L8.77081 4.863C6.24775 4.5457 3.9037 3.39233 2.11281 1.587L1.18981 0.668996L0.951809 1.347C0.695578 2.05592 0.640956 2.82201 0.794015 3.56011C0.947073 4.29821 1.30181 4.97941 1.81881 5.528C2.37881 6.121 2.25281 6.206 1.28681 5.853C1.08037 5.75716 0.856347 5.70507 0.628809 5.7C0.670642 6.35753 0.840487 7.00057 1.12881 7.593C1.57544 8.37312 2.24464 9.00228 3.05081 9.39999L3.73581 9.725L2.92881 9.736C2.14581 9.736 2.11781 9.75 2.20181 10.047C2.44768 10.5971 2.80828 11.0884 3.25945 11.4878C3.71062 11.8872 4.24194 12.1856 4.81781 12.363L5.68481 12.663L4.92981 13.115C3.78724 13.7715 2.49822 14.1308 1.18081 14.16C0.793553 14.1426 0.405769 14.1796 0.0288086 14.27C0.866235 14.8086 1.7751 15.227 2.72881 15.513C4.25026 15.9639 5.84695 16.1038 7.42363 15.9242C9.00031 15.7447 10.5247 15.2494 11.9058 14.468C13.9709 13.1472 15.5935 11.2387 16.5648 8.988C17.0917 7.6311 17.4123 6.20291 17.5158 4.751C17.5158 4.101 17.5578 4.017 18.3408 3.24C18.6954 2.90416 19.0228 2.54068 19.3198 2.153C19.4598 1.885 19.4458 1.885 18.7318 2.125C17.5428 2.549 17.3748 2.492 17.9628 1.857C18.3874 1.42866 18.7124 0.912095 18.9148 0.343996C18.9148 0.301996 18.7048 0.371996 18.4668 0.498996C18.0708 0.693524 17.659 0.8541 17.2358 0.978996L16.4808 1.219L15.7948 0.753996C15.4244 0.500523 15.0253 0.29174 14.6058 0.131996C13.7988 -0.0622511 12.9551 -0.0429509 12.1578 0.187996C11.3205 0.474138 10.6002 1.02699 10.1073 1.76178C9.61435 2.49657 9.37601 3.37275 9.42881 4.256Z" fill="white"/>
</svg>
